<svg width="350" height="440" viewBox="0 0 350 440" fill="none" xmlns="http://www.w3.org/2000/svg">
<path d="M303 229.438C303 306.481 231.327 325 178.757 325C126.188 325 47 306.481 47 229.438C47 152.395 90.0841 46.5513 178.757 46.0021C267.431 45.4529 303 152.395 303 229.438Z" fill="#0C0101"/>
<rect x="141" y="185" width="68.2139" height="128.131" rx="13.7769" fill="white" stroke="#323232" stroke-width="4" stroke-linecap="round"/>
<path d="M142.896 267.634V226.678H211.5C206.333 247.68 175.523 268.768 142.896 267.634Z" fill="#7E7E7E" fill-opacity="0.45"/>
<path d="M133 179.5C133 191.189 122.45 201 109 201C95.5501 201 85 191.189 85 179.5C85 167.811 95.5501 158 109 158C122.45 158 133 167.811 133 179.5Z" fill="white" stroke="black" stroke-width="4"/>
<path d="M220 179.5C220 191.189 230.55 201 244 201C257.45 201 268 191.189 268 179.5C268 167.811 257.45 158 244 158C230.55 158 220 167.811 220 179.5Z" fill="white" stroke="black" stroke-width="4"/>
<path d="M243 169.261C243 191.713 237.042 208.834 225.986 220.337C214.941 231.828 198.532 238 177.03 238C155.526 238 138.842 231.827 127.529 220.321C116.211 208.81 110 191.69 110 169.261C110 146.804 116.232 123.379 127.779 105.629C139.311 87.9028 156.009 76 177.03 76C198.043 76 214.472 87.8934 225.74 105.612C237.025 123.358 243 146.787 243 169.261Z" fill="white" stroke="black" stroke-width="4" stroke-linecap="round"/>
<path d="M177 168C175.029 174.812 174 178.371 174 185.458C176.64 186.72 179.163 187.036 183.5 187" stroke="black" stroke-width="4" stroke-linecap="round" stroke-linejoin="round"/>
<path d="M141.768 179.225C143.829 179.225 145.657 178.11 146.953 176.382C148.249 174.655 149.035 172.291 149.035 169.702C149.035 167.112 148.249 164.748 146.953 163.021C145.657 161.293 143.829 160.178 141.768 160.178C139.706 160.178 137.878 161.293 136.582 163.021C135.287 164.748 134.5 167.112 134.5 169.702C134.5 172.291 135.287 174.655 136.582 176.382C137.878 178.11 139.706 179.225 141.768 179.225Z" fill="black" stroke="black" stroke-linecap="round"/>
<circle cx="144.616" cy="167.487" r="2.5" fill="white" stroke="black"/>
<path d="M213.768 179.225C215.829 179.225 217.657 178.11 218.953 176.382C220.249 174.655 221.035 172.291 221.035 169.702C221.035 167.112 220.249 164.748 218.953 163.021C217.657 161.293 215.829 160.178 213.768 160.178C211.706 160.178 209.878 161.293 208.582 163.021C207.287 164.748 206.5 167.112 206.5 169.702C206.5 172.291 207.287 174.655 208.582 176.382C209.878 178.11 211.706 179.225 213.768 179.225Z" fill="black" stroke="black" stroke-linecap="round"/>
<circle cx="216.616" cy="167.487" r="2" fill="white"/>
<path d="M169 202.5C172 206.167 179.8 211.3 187 202.5" stroke="black" stroke-width="4" stroke-linecap="round" stroke-linejoin="round"/>
<g filter="url(#filter0_f_202_298)">
<ellipse cx="137.5" cy="197.5" rx="9.5" ry="5.5" fill="#FFB186"/>
</g>
<g filter="url(#filter1_f_202_298)">
<ellipse cx="216.5" cy="197.5" rx="9.5" ry="5.5" fill="#FFB186"/>
</g>
<path d="M191 105C169.149 147.401 151.136 156.762 104 161C94.5001 96.5 109.661 82.8036 180.5 72C238.144 91.2209 239.619 109.613 241 161C206.433 151.149 203.344 136.803 191 105Z" fill="black"/>
<path d="M143.272 276.913C151.401 283.496 164.844 286.123 177.479 285.92C183.851 285.818 190.145 284.995 195.64 283.526C201.101 282.067 205.93 279.927 209.231 277.086C209.767 276.625 210.375 276.576 210.744 276.742C238.051 289.01 255.96 302.029 268.176 319.045C280.404 336.079 287.078 357.326 291.512 386.356C291.604 386.958 291.132 387.5 290.538 387.5H60.4712C59.8781 387.5 59.4054 386.956 59.5001 386.354C64.2876 355.883 72.1771 334.394 85.1265 317.597C98.0777 300.798 116.241 288.495 141.954 276.675C142.302 276.515 142.828 276.554 143.272 276.913Z" fill="#04F0FF" stroke="black" stroke-width="4" stroke-linecap="round" stroke-linejoin="round"/>
<path d="M140.5 260L175.5 278.5L212 260V278.5L183 293.199V389.5H168V293.036L140.5 278.5V260Z" fill="black"/>
<path d="M78.7964 425.4C78.3431 425.4 77.9831 425.267 77.7164 425C77.4497 424.707 77.3164 424.307 77.3164 423.8V408.16C77.3164 404.533 78.3297 401.707 80.3564 399.68C82.4097 397.627 85.2497 396.6 88.8764 396.6C92.4764 396.6 95.3031 397.627 97.3564 399.68C99.4097 401.733 100.436 404.56 100.436 408.16V423.8C100.436 424.307 100.303 424.707 100.036 425C99.7697 425.267 99.3964 425.4 98.9164 425.4C98.4631 425.4 98.0897 425.267 97.7964 425C97.5297 424.707 97.3964 424.307 97.3964 423.8V414.8H80.3164V423.8C80.3164 424.307 80.1831 424.707 79.9164 425C79.6497 425.267 79.2764 425.4 78.7964 425.4ZM97.3964 412.32V408.04C97.3964 405.187 96.6631 403 95.1964 401.48C93.7297 399.933 91.6231 399.16 88.8764 399.16C86.1031 399.16 83.9831 399.92 82.5164 401.44C81.0497 402.96 80.3164 405.16 80.3164 408.04V412.32H97.3964ZM107.858 425.4C107.405 425.4 107.045 425.267 106.778 425C106.511 424.707 106.378 424.307 106.378 423.8V407.48C106.378 405.267 106.845 403.347 107.778 401.72C108.738 400.067 110.098 398.8 111.858 397.92C113.618 397.04 115.685 396.6 118.058 396.6C120.431 396.6 122.485 397.04 124.218 397.92C125.978 398.8 127.325 400.067 128.258 401.72C129.218 403.347 129.698 405.267 129.698 407.48V423.8C129.698 424.307 129.565 424.707 129.298 425C129.058 425.267 128.698 425.4 128.218 425.4C127.765 425.4 127.391 425.267 127.098 425C126.831 424.707 126.698 424.307 126.698 423.8V407.36C126.698 404.773 125.938 402.76 124.418 401.32C122.898 399.88 120.778 399.16 118.058 399.16C115.391 399.16 113.271 399.893 111.698 401.36C110.151 402.827 109.378 404.827 109.378 407.36V423.8C109.378 424.307 109.245 424.707 108.978 425C108.711 425.267 108.338 425.4 107.858 425.4ZM147.236 425.4C144.862 425.4 142.796 424.933 141.036 424C139.302 423.067 137.969 421.72 137.036 419.96C136.102 418.2 135.636 416.107 135.636 413.68V398.2C135.636 397.693 135.769 397.307 136.036 397.04C136.302 396.747 136.662 396.6 137.116 396.6C137.596 396.6 137.969 396.747 138.236 397.04C138.502 397.307 138.636 397.693 138.636 398.2V413.8C138.636 416.68 139.396 418.907 140.916 420.48C142.436 422.053 144.569 422.84 147.316 422.84C150.089 422.84 152.249 422.053 153.796 420.48C155.369 418.88 156.156 416.653 156.156 413.8V398.2C156.156 397.693 156.289 397.307 156.556 397.04C156.849 396.747 157.222 396.6 157.676 396.6C158.156 396.6 158.516 396.747 158.756 397.04C159.022 397.307 159.156 397.693 159.156 398.2V413.68C159.156 416.027 158.676 418.093 157.716 419.88C156.756 421.64 155.369 423 153.556 423.96C151.769 424.92 149.662 425.4 147.236 425.4ZM176.768 425.4C174.208 425.4 171.848 424.973 169.688 424.12C167.555 423.24 165.888 422.04 164.688 420.52C164.475 420.253 164.368 419.973 164.368 419.68C164.368 419.307 164.568 418.947 164.968 418.6C165.181 418.44 165.408 418.36 165.648 418.36C166.128 418.36 166.555 418.587 166.928 419.04C168.021 420.24 169.395 421.173 171.048 421.84C172.728 422.48 174.635 422.8 176.768 422.8C179.115 422.8 180.928 422.373 182.208 421.52C183.488 420.64 184.128 419.4 184.128 417.8C184.128 416.413 183.501 415.293 182.248 414.44C181.021 413.587 178.928 412.827 175.968 412.16C172.101 411.307 169.315 410.24 167.608 408.96C165.928 407.653 165.088 405.933 165.088 403.8C165.088 401.587 166.021 399.84 167.888 398.56C169.781 397.253 172.328 396.6 175.528 396.6C177.955 396.6 180.141 397.027 182.088 397.88C184.061 398.733 185.461 399.88 186.288 401.32C186.448 401.587 186.528 401.84 186.528 402.08C186.528 402.507 186.301 402.88 185.848 403.2C185.661 403.307 185.448 403.36 185.208 403.36C184.621 403.36 184.168 403.133 183.848 402.68C183.075 401.56 181.981 400.707 180.568 400.12C179.155 399.507 177.475 399.2 175.528 399.2C170.595 399.2 168.128 400.733 168.128 403.8C168.128 404.733 168.381 405.52 168.888 406.16C169.395 406.773 170.208 407.333 171.328 407.84C172.475 408.32 174.061 408.8 176.088 409.28C180.035 410.213 182.875 411.347 184.608 412.68C186.341 413.987 187.208 415.693 187.208 417.8C187.208 420.147 186.261 422 184.368 423.36C182.501 424.72 179.968 425.4 176.768 425.4ZM194.035 425.4C193.581 425.4 193.221 425.267 192.955 425C192.688 424.707 192.555 424.307 192.555 423.8V398.2C192.555 397.693 192.688 397.307 192.955 397.04C193.221 396.747 193.581 396.6 194.035 396.6C194.515 396.6 194.888 396.747 195.155 397.04C195.421 397.307 195.555 397.693 195.555 398.2V409.36H213.115V398.2C213.115 397.693 213.248 397.307 213.515 397.04C213.781 396.747 214.155 396.6 214.635 396.6C215.088 396.6 215.448 396.747 215.715 397.04C215.981 397.307 216.115 397.693 216.115 398.2V423.8C216.115 424.307 215.981 424.707 215.715 425C215.448 425.267 215.088 425.4 214.635 425.4C214.181 425.4 213.808 425.267 213.515 425C213.248 424.707 213.115 424.307 213.115 423.8V411.88H195.555V423.8C195.555 424.307 195.421 424.707 195.155 425C194.888 425.267 194.515 425.4 194.035 425.4ZM243.077 425.36C242.357 425.36 241.877 424.96 241.637 424.16C240.784 420.96 239.491 418.28 237.757 416.12C236.024 413.933 233.624 411.96 230.557 410.2L225.517 414.32V423.8C225.517 424.307 225.384 424.707 225.117 425C224.851 425.267 224.477 425.4 223.997 425.4C223.544 425.4 223.184 425.267 222.917 425C222.651 424.707 222.517 424.307 222.517 423.8V398.2C222.517 397.693 222.651 397.307 222.917 397.04C223.184 396.747 223.544 396.6 223.997 396.6C224.477 396.6 224.851 396.747 225.117 397.04C225.384 397.307 225.517 397.693 225.517 398.2V410.88L241.477 397.12C241.771 396.88 242.064 396.76 242.357 396.76C242.731 396.76 243.064 396.907 243.357 397.2C243.624 397.467 243.757 397.787 243.757 398.16C243.757 398.507 243.597 398.827 243.277 399.12L232.597 408.44C236.064 410.493 238.757 412.76 240.677 415.24C242.624 417.72 243.864 420.533 244.397 423.68L244.437 424C244.437 424.427 244.304 424.76 244.037 425C243.797 425.24 243.477 425.36 243.077 425.36ZM251.062 425.4C250.609 425.4 250.249 425.267 249.982 425C249.715 424.707 249.582 424.307 249.582 423.8V408.16C249.582 404.533 250.595 401.707 252.622 399.68C254.675 397.627 257.515 396.6 261.142 396.6C264.742 396.6 267.569 397.627 269.622 399.68C271.675 401.733 272.702 404.56 272.702 408.16V423.8C272.702 424.307 272.569 424.707 272.302 425C272.035 425.267 271.662 425.4 271.182 425.4C270.729 425.4 270.355 425.267 270.062 425C269.795 424.707 269.662 424.307 269.662 423.8V414.8H252.582V423.8C252.582 424.307 252.449 424.707 252.182 425C251.915 425.267 251.542 425.4 251.062 425.4ZM269.662 412.32V408.04C269.662 405.187 268.929 403 267.462 401.48C265.995 399.933 263.889 399.16 261.142 399.16C258.369 399.16 256.249 399.92 254.782 401.44C253.315 402.96 252.582 405.16 252.582 408.04V412.32H269.662Z" fill="black"/>
<defs>
<filter id="filter0_f_202_298" x="116" y="180" width="43" height="35" filterUnits="userSpaceOnUse" color-interpolation-filters="sRGB">
<feFlood flood-opacity="0" result="BackgroundImageFix"/>
<feBlend mode="normal" in="SourceGraphic" in2="BackgroundImageFix" result="shape"/>
<feGaussianBlur stdDeviation="6" result="effect1_foregroundBlur_202_298"/>
</filter>
<filter id="filter1_f_202_298" x="195" y="180" width="43" height="35" filterUnits="userSpaceOnUse" color-interpolation-filters="sRGB">
<feFlood flood-opacity="0" result="BackgroundImageFix"/>
<feBlend mode="normal" in="SourceGraphic" in2="BackgroundImageFix" result="shape"/>
<feGaussianBlur stdDeviation="6" result="effect1_foregroundBlur_202_298"/>
</filter>
</defs>
</svg>
